<mxfile host="app.diagrams.net" agent="Mozilla/5.0 (Windows NT 10.0; Win64; x64) AppleWebKit/537.36 (KHTML, like Gecko) Chrome/131.0.0.0 Safari/537.36 Edg/131.0.0.0" version="25.0.3">
  <diagram name="第 1 页" id="MaPWvrrAlnJHsjXiaG7-">
    <mxGraphModel dx="1105" dy="718" grid="1" gridSize="10" guides="1" tooltips="1" connect="1" arrows="1" fold="1" page="1" pageScale="1" pageWidth="827" pageHeight="1169" math="0" shadow="0">
      <root>
        <mxCell id="0" />
        <mxCell id="1" parent="0" />
        <mxCell id="HLBeFbxGgxuQ4I423yTP-1" value="&lt;b&gt;User: Actor&lt;/b&gt;" style="shape=umlActor;verticalLabelPosition=bottom;verticalAlign=top;html=1;" parent="1" vertex="1">
          <mxGeometry x="92" y="110" width="30" height="60" as="geometry" />
        </mxCell>
        <mxCell id="HLBeFbxGgxuQ4I423yTP-3" value="" style="shape=umlBoundary;whiteSpace=wrap;html=1;" parent="1" vertex="1">
          <mxGeometry x="255" y="110" width="60" height="50" as="geometry" />
        </mxCell>
        <mxCell id="HLBeFbxGgxuQ4I423yTP-4" value="&lt;div style=&quot;text-align: center;&quot;&gt;&lt;span style=&quot;font-weight: normal;&quot;&gt;&amp;lt;&amp;lt;boundary&amp;gt;&amp;gt;&lt;/span&gt;&lt;/div&gt;&lt;span style=&quot;color: rgb(0, 0, 0); font-family: Helvetica; font-style: normal; font-variant-ligatures: normal; font-variant-caps: normal; letter-spacing: normal; orphans: 2; text-align: center; text-indent: 0px; text-transform: none; widows: 2; word-spacing: 0px; -webkit-text-stroke-width: 0px; white-space: normal; text-decoration-thickness: initial; text-decoration-style: initial; text-decoration-color: initial; float: none; font-size: 12px; display: inline !important;&quot;&gt;&lt;font style=&quot;font-size: 12px;&quot;&gt;TutorialContentPage&lt;/font&gt;&lt;/span&gt;" style="text;whiteSpace=wrap;html=1;fontStyle=1;fontSize=12;" parent="1" vertex="1">
          <mxGeometry x="230" y="157.5" width="110" height="20" as="geometry" />
        </mxCell>
        <mxCell id="HLBeFbxGgxuQ4I423yTP-5" value="&lt;div&gt;&lt;span style=&quot;color: rgb(0, 0, 0); font-family: Helvetica; font-style: normal; font-variant-ligatures: normal; font-variant-caps: normal; letter-spacing: normal; orphans: 2; text-align: center; text-indent: 0px; text-transform: none; widows: 2; word-spacing: 0px; -webkit-text-stroke-width: 0px; white-space: normal; text-decoration-thickness: initial; text-decoration-style: initial; text-decoration-color: initial; float: none; font-size: 12px; display: inline !important; font-weight: normal;&quot;&gt;&lt;font style=&quot;font-size: 12px;&quot;&gt;&amp;nbsp; &amp;nbsp; &amp;nbsp; &amp;lt;&amp;lt;control&amp;gt;&amp;gt;&lt;/font&gt;&lt;/span&gt;&lt;/div&gt;&lt;span style=&quot;color: rgb(0, 0, 0); font-family: Helvetica; font-style: normal; font-variant-ligatures: normal; font-variant-caps: normal; letter-spacing: normal; orphans: 2; text-align: center; text-indent: 0px; text-transform: none; widows: 2; word-spacing: 0px; -webkit-text-stroke-width: 0px; white-space: normal; text-decoration-thickness: initial; text-decoration-style: initial; text-decoration-color: initial; float: none; font-size: 12px; display: inline !important;&quot;&gt;&lt;font style=&quot;font-size: 12px;&quot;&gt;TutorialController&lt;/font&gt;&lt;/span&gt;" style="text;whiteSpace=wrap;html=1;fontStyle=1;fontSize=12;" parent="1" vertex="1">
          <mxGeometry x="414" y="161" width="110" height="20" as="geometry" />
        </mxCell>
        <mxCell id="HLBeFbxGgxuQ4I423yTP-6" value="" style="ellipse;shape=umlControl;whiteSpace=wrap;html=1;" parent="1" vertex="1">
          <mxGeometry x="440" y="108.5" width="50" height="55" as="geometry" />
        </mxCell>
        <mxCell id="HLBeFbxGgxuQ4I423yTP-7" value="" style="ellipse;shape=umlEntity;whiteSpace=wrap;html=1;" parent="1" vertex="1">
          <mxGeometry x="965" y="114" width="50" height="50" as="geometry" />
        </mxCell>
        <mxCell id="HLBeFbxGgxuQ4I423yTP-8" value="&lt;div style=&quot;text-align: center;&quot;&gt;&lt;span style=&quot;font-weight: normal;&quot;&gt;&amp;lt;&amp;lt;entity&amp;gt;&amp;gt;&lt;/span&gt;&lt;/div&gt;&lt;span style=&quot;color: rgb(0, 0, 0); font-family: Helvetica; font-style: normal; font-variant-ligatures: normal; font-variant-caps: normal; letter-spacing: normal; orphans: 2; text-align: center; text-indent: 0px; text-transform: none; widows: 2; word-spacing: 0px; -webkit-text-stroke-width: 0px; white-space: normal; text-decoration-thickness: initial; text-decoration-style: initial; text-decoration-color: initial; float: none; font-size: 12px; display: inline !important;&quot;&gt;&lt;font style=&quot;font-size: 12px;&quot;&gt;&amp;nbsp; &amp;nbsp; &amp;nbsp;Plan&lt;/font&gt;&lt;/span&gt;" style="text;whiteSpace=wrap;html=1;fontStyle=1;fontSize=12;" parent="1" vertex="1">
          <mxGeometry x="960" y="163" width="117" height="20" as="geometry" />
        </mxCell>
        <mxCell id="HLBeFbxGgxuQ4I423yTP-9" value="" style="ellipse;shape=umlEntity;whiteSpace=wrap;html=1;" parent="1" vertex="1">
          <mxGeometry x="1125" y="114" width="50" height="50" as="geometry" />
        </mxCell>
        <mxCell id="HLBeFbxGgxuQ4I423yTP-10" value="&lt;div style=&quot;text-align: center;&quot;&gt;&lt;span style=&quot;font-weight: normal;&quot;&gt;&amp;nbsp; &amp;nbsp;&amp;lt;&amp;lt;entity&amp;gt;&amp;gt;&lt;/span&gt;&lt;/div&gt;&lt;span style=&quot;color: rgb(0, 0, 0); font-family: Helvetica; font-style: normal; font-variant-ligatures: normal; font-variant-caps: normal; letter-spacing: normal; orphans: 2; text-align: center; text-indent: 0px; text-transform: none; widows: 2; word-spacing: 0px; -webkit-text-stroke-width: 0px; white-space: normal; text-decoration-thickness: initial; text-decoration-style: initial; text-decoration-color: initial; float: none; font-size: 12px; display: inline !important;&quot;&gt;&lt;font style=&quot;font-size: 12px;&quot;&gt;&amp;nbsp; &amp;nbsp; &amp;nbsp;Analysis&lt;/font&gt;&lt;/span&gt;" style="text;whiteSpace=wrap;html=1;fontStyle=1;fontSize=12;" parent="1" vertex="1">
          <mxGeometry x="1110" y="163" width="80" height="41" as="geometry" />
        </mxCell>
        <mxCell id="HLBeFbxGgxuQ4I423yTP-12" value="&lt;div&gt;&lt;span style=&quot;color: rgb(0, 0, 0); font-family: Helvetica; font-style: normal; font-variant-ligatures: normal; font-variant-caps: normal; letter-spacing: normal; orphans: 2; text-align: center; text-indent: 0px; text-transform: none; widows: 2; word-spacing: 0px; -webkit-text-stroke-width: 0px; white-space: normal; text-decoration-thickness: initial; text-decoration-style: initial; text-decoration-color: initial; float: none; font-size: 12px; display: inline !important; font-weight: normal;&quot;&gt;&lt;font style=&quot;font-size: 12px;&quot;&gt;&amp;nbsp; &amp;nbsp; &amp;nbsp; &amp;lt;&amp;lt;control&amp;gt;&amp;gt;&lt;/font&gt;&lt;/span&gt;&lt;/div&gt;&lt;b style=&quot;text-align: center;&quot;&gt;AIAnalysisController&lt;/b&gt;&lt;div&gt;&lt;b style=&quot;text-align: center;&quot;&gt;&lt;br&gt;&lt;/b&gt;&lt;/div&gt;" style="text;whiteSpace=wrap;html=1;fontStyle=1;fontSize=12;" parent="1" vertex="1">
          <mxGeometry x="775" y="162.5" width="110" height="20" as="geometry" />
        </mxCell>
        <mxCell id="HLBeFbxGgxuQ4I423yTP-13" value="" style="ellipse;shape=umlControl;whiteSpace=wrap;html=1;" parent="1" vertex="1">
          <mxGeometry x="801" y="110" width="50" height="55" as="geometry" />
        </mxCell>
        <mxCell id="HLBeFbxGgxuQ4I423yTP-16" value="&lt;div&gt;&lt;span style=&quot;color: rgb(0, 0, 0); font-family: Helvetica; font-style: normal; font-variant-ligatures: normal; font-variant-caps: normal; letter-spacing: normal; orphans: 2; text-align: center; text-indent: 0px; text-transform: none; widows: 2; word-spacing: 0px; -webkit-text-stroke-width: 0px; white-space: normal; text-decoration-thickness: initial; text-decoration-style: initial; text-decoration-color: initial; float: none; font-size: 12px; display: inline !important; font-weight: normal;&quot;&gt;&lt;font style=&quot;font-size: 12px;&quot;&gt;&amp;nbsp; &amp;nbsp; &amp;nbsp; &amp;nbsp; &amp;nbsp; &amp;lt;&amp;lt;control&amp;gt;&amp;gt;&lt;/font&gt;&lt;/span&gt;&lt;/div&gt;&lt;b style=&quot;text-align: center;&quot;&gt;ActionUploadController&lt;/b&gt;&lt;div&gt;&lt;b style=&quot;text-align: center;&quot;&gt;&lt;br&gt;&lt;/b&gt;&lt;/div&gt;" style="text;whiteSpace=wrap;html=1;fontStyle=1;fontSize=12;" parent="1" vertex="1">
          <mxGeometry x="580" y="162" width="110" height="20" as="geometry" />
        </mxCell>
        <mxCell id="HLBeFbxGgxuQ4I423yTP-17" value="" style="ellipse;shape=umlControl;whiteSpace=wrap;html=1;" parent="1" vertex="1">
          <mxGeometry x="620" y="109.5" width="50" height="55" as="geometry" />
        </mxCell>
        <mxCell id="HLBeFbxGgxuQ4I423yTP-18" value="" style="endArrow=none;dashed=1;html=1;rounded=0;" parent="1" edge="1">
          <mxGeometry width="50" height="50" relative="1" as="geometry">
            <mxPoint x="108" y="1050" as="sourcePoint" />
            <mxPoint x="108.39999999999999" y="192.5" as="targetPoint" />
          </mxGeometry>
        </mxCell>
        <mxCell id="HLBeFbxGgxuQ4I423yTP-19" value="" style="endArrow=none;dashed=1;html=1;rounded=0;" parent="1" source="HLBeFbxGgxuQ4I423yTP-22" edge="1">
          <mxGeometry width="50" height="50" relative="1" as="geometry">
            <mxPoint x="283.6" y="701.5" as="sourcePoint" />
            <mxPoint x="285" y="190" as="targetPoint" />
          </mxGeometry>
        </mxCell>
        <mxCell id="HLBeFbxGgxuQ4I423yTP-20" value="" style="endArrow=classic;html=1;rounded=0;" parent="1" edge="1">
          <mxGeometry width="50" height="50" relative="1" as="geometry">
            <mxPoint x="110" y="250.00000000000003" as="sourcePoint" />
            <mxPoint x="280" y="250" as="targetPoint" />
          </mxGeometry>
        </mxCell>
        <mxCell id="HLBeFbxGgxuQ4I423yTP-21" value="&lt;div style=&quot;text-align: center;&quot;&gt;&lt;span style=&quot;font-weight: 400;&quot;&gt;Click the owned tutorial&lt;/span&gt;&lt;/div&gt;" style="text;whiteSpace=wrap;html=1;fontStyle=1;fontSize=12;" parent="1" vertex="1">
          <mxGeometry x="130" y="230" width="130" height="20" as="geometry" />
        </mxCell>
        <mxCell id="HLBeFbxGgxuQ4I423yTP-23" value="" style="endArrow=none;dashed=1;html=1;rounded=0;" parent="1" target="HLBeFbxGgxuQ4I423yTP-22" edge="1">
          <mxGeometry width="50" height="50" relative="1" as="geometry">
            <mxPoint x="285" y="1040" as="sourcePoint" />
            <mxPoint x="286.4" y="194" as="targetPoint" />
          </mxGeometry>
        </mxCell>
        <mxCell id="HLBeFbxGgxuQ4I423yTP-22" value="" style="rounded=0;whiteSpace=wrap;html=1;direction=south;" parent="1" vertex="1">
          <mxGeometry x="280" y="239" width="10" height="771" as="geometry" />
        </mxCell>
        <mxCell id="HLBeFbxGgxuQ4I423yTP-24" value="" style="endArrow=classic;html=1;rounded=0;" parent="1" edge="1">
          <mxGeometry width="50" height="50" relative="1" as="geometry">
            <mxPoint x="110" y="280" as="sourcePoint" />
            <mxPoint x="280" y="280" as="targetPoint" />
          </mxGeometry>
        </mxCell>
        <mxCell id="HLBeFbxGgxuQ4I423yTP-25" value="&lt;div style=&quot;text-align: center;&quot;&gt;&lt;span style=&quot;font-weight: 400;&quot;&gt;Choose plan-making method&lt;/span&gt;&lt;/div&gt;" style="text;whiteSpace=wrap;html=1;fontStyle=1;fontSize=12;" parent="1" vertex="1">
          <mxGeometry x="112" y="259" width="170" height="20" as="geometry" />
        </mxCell>
        <mxCell id="HLBeFbxGgxuQ4I423yTP-26" value="" style="endArrow=classic;html=1;rounded=0;" parent="1" edge="1">
          <mxGeometry width="50" height="50" relative="1" as="geometry">
            <mxPoint x="290" y="259" as="sourcePoint" />
            <mxPoint x="460" y="259" as="targetPoint" />
          </mxGeometry>
        </mxCell>
        <mxCell id="HLBeFbxGgxuQ4I423yTP-27" value="&lt;div style=&quot;text-align: center;&quot;&gt;&lt;span style=&quot;font-weight: 400;&quot;&gt;Send user infomation&lt;/span&gt;&lt;/div&gt;" style="text;whiteSpace=wrap;html=1;fontStyle=1;fontSize=12;" parent="1" vertex="1">
          <mxGeometry x="310" y="239" width="130" height="20" as="geometry" />
        </mxCell>
        <mxCell id="HLBeFbxGgxuQ4I423yTP-28" value="" style="endArrow=none;dashed=1;html=1;rounded=0;" parent="1" source="HLBeFbxGgxuQ4I423yTP-29" edge="1">
          <mxGeometry width="50" height="50" relative="1" as="geometry">
            <mxPoint x="466" y="700" as="sourcePoint" />
            <mxPoint x="465" y="200" as="targetPoint" />
          </mxGeometry>
        </mxCell>
        <mxCell id="HLBeFbxGgxuQ4I423yTP-30" value="" style="endArrow=none;dashed=1;html=1;rounded=0;" parent="1" target="HLBeFbxGgxuQ4I423yTP-29" edge="1">
          <mxGeometry width="50" height="50" relative="1" as="geometry">
            <mxPoint x="466" y="1040" as="sourcePoint" />
            <mxPoint x="466.4" y="195" as="targetPoint" />
          </mxGeometry>
        </mxCell>
        <mxCell id="HLBeFbxGgxuQ4I423yTP-29" value="" style="rounded=0;whiteSpace=wrap;html=1;direction=south;" parent="1" vertex="1">
          <mxGeometry x="460" y="250" width="10" height="530" as="geometry" />
        </mxCell>
        <mxCell id="HLBeFbxGgxuQ4I423yTP-31" value="" style="endArrow=classic;html=1;rounded=0;" parent="1" edge="1">
          <mxGeometry width="50" height="50" relative="1" as="geometry">
            <mxPoint x="470" y="400" as="sourcePoint" />
            <mxPoint x="820" y="400" as="targetPoint" />
          </mxGeometry>
        </mxCell>
        <mxCell id="HLBeFbxGgxuQ4I423yTP-32" value="&lt;div style=&quot;text-align: center;&quot;&gt;&lt;span style=&quot;font-weight: 400;&quot;&gt;Send user and tutorial ID&lt;/span&gt;&lt;/div&gt;" style="text;whiteSpace=wrap;html=1;fontStyle=1;fontSize=12;" parent="1" vertex="1">
          <mxGeometry x="550" y="380" width="220" height="20" as="geometry" />
        </mxCell>
        <mxCell id="HLBeFbxGgxuQ4I423yTP-33" value="" style="endArrow=none;dashed=1;html=1;rounded=0;" parent="1" source="HLBeFbxGgxuQ4I423yTP-34" edge="1">
          <mxGeometry width="50" height="50" relative="1" as="geometry">
            <mxPoint x="827" y="712" as="sourcePoint" />
            <mxPoint x="826.8" y="204" as="targetPoint" />
          </mxGeometry>
        </mxCell>
        <mxCell id="HLBeFbxGgxuQ4I423yTP-35" value="" style="endArrow=none;dashed=1;html=1;rounded=0;" parent="1" target="HLBeFbxGgxuQ4I423yTP-34" edge="1">
          <mxGeometry width="50" height="50" relative="1" as="geometry">
            <mxPoint x="827" y="712" as="sourcePoint" />
            <mxPoint x="826.8" y="204" as="targetPoint" />
          </mxGeometry>
        </mxCell>
        <mxCell id="HLBeFbxGgxuQ4I423yTP-34" value="" style="rounded=0;whiteSpace=wrap;html=1;direction=south;" parent="1" vertex="1">
          <mxGeometry x="821" y="380" width="10" height="600" as="geometry" />
        </mxCell>
        <mxCell id="HLBeFbxGgxuQ4I423yTP-36" value="" style="endArrow=classic;html=1;rounded=0;edgeStyle=orthogonalEdgeStyle;" parent="1" edge="1">
          <mxGeometry width="50" height="50" relative="1" as="geometry">
            <mxPoint x="831" y="390.01" as="sourcePoint" />
            <mxPoint x="831.29" y="408.28" as="targetPoint" />
            <Array as="points">
              <mxPoint x="853.29" y="390.28" />
              <mxPoint x="853.29" y="408.28" />
            </Array>
          </mxGeometry>
        </mxCell>
        <mxCell id="HLBeFbxGgxuQ4I423yTP-37" value="" style="endArrow=classic;html=1;rounded=0;edgeStyle=orthogonalEdgeStyle;" parent="1" edge="1">
          <mxGeometry width="50" height="50" relative="1" as="geometry">
            <mxPoint x="831" y="420.01" as="sourcePoint" />
            <mxPoint x="831.29" y="438.28" as="targetPoint" />
            <Array as="points">
              <mxPoint x="853.29" y="420.28" />
              <mxPoint x="853.29" y="438.28" />
            </Array>
          </mxGeometry>
        </mxCell>
        <mxCell id="HLBeFbxGgxuQ4I423yTP-38" value="&lt;div style=&quot;text-align: center;&quot;&gt;&lt;span style=&quot;font-weight: 400;&quot;&gt;Get user history info&lt;/span&gt;&lt;/div&gt;" style="text;whiteSpace=wrap;html=1;fontStyle=1;fontSize=12;" parent="1" vertex="1">
          <mxGeometry x="856" y="385" width="144" height="20" as="geometry" />
        </mxCell>
        <mxCell id="HLBeFbxGgxuQ4I423yTP-39" value="&lt;div style=&quot;text-align: center;&quot;&gt;&lt;span style=&quot;font-weight: 400;&quot;&gt;Get tutorial detail&lt;/span&gt;&lt;/div&gt;" style="text;whiteSpace=wrap;html=1;fontStyle=1;fontSize=12;" parent="1" vertex="1">
          <mxGeometry x="856" y="414" width="144" height="20" as="geometry" />
        </mxCell>
        <mxCell id="HLBeFbxGgxuQ4I423yTP-40" value="" style="endArrow=classic;html=1;rounded=0;edgeStyle=orthogonalEdgeStyle;" parent="1" edge="1">
          <mxGeometry width="50" height="50" relative="1" as="geometry">
            <mxPoint x="831" y="450.01" as="sourcePoint" />
            <mxPoint x="831.29" y="468.28" as="targetPoint" />
            <Array as="points">
              <mxPoint x="853.29" y="450.28" />
              <mxPoint x="853.29" y="468.28" />
            </Array>
          </mxGeometry>
        </mxCell>
        <mxCell id="HLBeFbxGgxuQ4I423yTP-41" value="&lt;div style=&quot;text-align: center;&quot;&gt;&lt;span style=&quot;font-weight: 400;&quot;&gt;Call to the AI large model&lt;/span&gt;&lt;/div&gt;" style="text;whiteSpace=wrap;html=1;fontStyle=1;fontSize=12;" parent="1" vertex="1">
          <mxGeometry x="856" y="445" width="144" height="20" as="geometry" />
        </mxCell>
        <mxCell id="HLBeFbxGgxuQ4I423yTP-42" value="" style="endArrow=none;dashed=1;html=1;rounded=0;" parent="1" source="HLBeFbxGgxuQ4I423yTP-43" edge="1">
          <mxGeometry width="50" height="50" relative="1" as="geometry">
            <mxPoint x="988.6" y="708.75" as="sourcePoint" />
            <mxPoint x="990" y="201" as="targetPoint" />
          </mxGeometry>
        </mxCell>
        <mxCell id="HLBeFbxGgxuQ4I423yTP-44" value="" style="endArrow=none;dashed=1;html=1;rounded=0;" parent="1" target="HLBeFbxGgxuQ4I423yTP-43" edge="1">
          <mxGeometry width="50" height="50" relative="1" as="geometry">
            <mxPoint x="990" y="1050" as="sourcePoint" />
            <mxPoint x="991.4" y="201.25" as="targetPoint" />
          </mxGeometry>
        </mxCell>
        <mxCell id="HLBeFbxGgxuQ4I423yTP-43" value="" style="rounded=0;whiteSpace=wrap;html=1;direction=south;" parent="1" vertex="1">
          <mxGeometry x="985" y="470" width="10" height="180" as="geometry" />
        </mxCell>
        <mxCell id="HLBeFbxGgxuQ4I423yTP-45" value="" style="endArrow=classic;html=1;rounded=0;" parent="1" edge="1">
          <mxGeometry width="50" height="50" relative="1" as="geometry">
            <mxPoint x="831" y="540" as="sourcePoint" />
            <mxPoint x="984" y="540" as="targetPoint" />
          </mxGeometry>
        </mxCell>
        <mxCell id="HLBeFbxGgxuQ4I423yTP-46" value="&lt;div style=&quot;text-align: center;&quot;&gt;&lt;span style=&quot;font-weight: 400;&quot;&gt;Generate detail plan&lt;/span&gt;&lt;/div&gt;" style="text;whiteSpace=wrap;html=1;fontStyle=1;fontSize=12;" parent="1" vertex="1">
          <mxGeometry x="841" y="520" width="144" height="20" as="geometry" />
        </mxCell>
        <mxCell id="HLBeFbxGgxuQ4I423yTP-47" value="" style="endArrow=open;endSize=12;dashed=1;html=1;rounded=0;entryX=1.158;entryY=0.816;entryDx=0;entryDy=0;entryPerimeter=0;" parent="1" edge="1">
          <mxGeometry width="160" relative="1" as="geometry">
            <mxPoint x="820" y="530" as="sourcePoint" />
            <mxPoint x="470" y="529.5699999999999" as="targetPoint" />
          </mxGeometry>
        </mxCell>
        <mxCell id="HLBeFbxGgxuQ4I423yTP-48" value="&lt;div style=&quot;text-align: center;&quot;&gt;&lt;span style=&quot;font-weight: 400;&quot;&gt;Return AI-based fit plan&lt;/span&gt;&lt;/div&gt;" style="text;whiteSpace=wrap;html=1;fontStyle=1;fontSize=12;" parent="1" vertex="1">
          <mxGeometry x="551" y="510" width="220" height="20" as="geometry" />
        </mxCell>
        <mxCell id="HLBeFbxGgxuQ4I423yTP-49" value="" style="endArrow=open;endSize=12;dashed=1;html=1;rounded=0;entryX=1.158;entryY=0.816;entryDx=0;entryDy=0;entryPerimeter=0;" parent="1" edge="1">
          <mxGeometry width="160" relative="1" as="geometry">
            <mxPoint x="460" y="530" as="sourcePoint" />
            <mxPoint x="290" y="529.7099999999999" as="targetPoint" />
          </mxGeometry>
        </mxCell>
        <mxCell id="HLBeFbxGgxuQ4I423yTP-50" value="&lt;div style=&quot;text-align: center;&quot;&gt;&lt;span style=&quot;font-weight: 400;&quot;&gt;Display in the interface&lt;/span&gt;&lt;/div&gt;" style="text;whiteSpace=wrap;html=1;fontStyle=1;fontSize=12;" parent="1" vertex="1">
          <mxGeometry x="315" y="510" width="220" height="20" as="geometry" />
        </mxCell>
        <mxCell id="HLBeFbxGgxuQ4I423yTP-51" value="&lt;div style=&quot;text-align: center;&quot;&gt;&lt;span style=&quot;font-weight: 400;&quot;&gt;[by own]&lt;/span&gt;&lt;/div&gt;" style="text;whiteSpace=wrap;html=1;fontStyle=1;fontSize=12;" parent="1" vertex="1">
          <mxGeometry x="181" y="545" width="170" height="20" as="geometry" />
        </mxCell>
        <mxCell id="HLBeFbxGgxuQ4I423yTP-52" value="" style="endArrow=classic;html=1;rounded=0;" parent="1" edge="1">
          <mxGeometry width="50" height="50" relative="1" as="geometry">
            <mxPoint x="107" y="592" as="sourcePoint" />
            <mxPoint x="277" y="592" as="targetPoint" />
          </mxGeometry>
        </mxCell>
        <mxCell id="HLBeFbxGgxuQ4I423yTP-54" value="" style="endArrow=classic;html=1;rounded=0;entryX=0.709;entryY=0.933;entryDx=0;entryDy=0;entryPerimeter=0;" parent="1" target="HLBeFbxGgxuQ4I423yTP-43" edge="1">
          <mxGeometry width="50" height="50" relative="1" as="geometry">
            <mxPoint x="290" y="595" as="sourcePoint" />
            <mxPoint x="460" y="595" as="targetPoint" />
          </mxGeometry>
        </mxCell>
        <mxCell id="HLBeFbxGgxuQ4I423yTP-57" value="&lt;div style=&quot;text-align: center;&quot;&gt;&lt;span style=&quot;font-weight: 400;&quot;&gt;Generate plans by own&amp;nbsp;&lt;/span&gt;&lt;/div&gt;" style="text;whiteSpace=wrap;html=1;fontStyle=1;fontSize=12;" parent="1" vertex="1">
          <mxGeometry x="524" y="575" width="220" height="20" as="geometry" />
        </mxCell>
        <mxCell id="HLBeFbxGgxuQ4I423yTP-58" value="alt by&amp;nbsp;" style="shape=umlFrame;whiteSpace=wrap;html=1;pointerEvents=0;" parent="1" vertex="1">
          <mxGeometry x="91" y="490" width="919" height="130" as="geometry" />
        </mxCell>
        <mxCell id="HLBeFbxGgxuQ4I423yTP-59" value="" style="endArrow=none;dashed=1;html=1;rounded=0;exitX=0.001;exitY=0.447;exitDx=0;exitDy=0;exitPerimeter=0;entryX=1.004;entryY=0.448;entryDx=0;entryDy=0;entryPerimeter=0;" parent="1" source="HLBeFbxGgxuQ4I423yTP-58" target="HLBeFbxGgxuQ4I423yTP-58" edge="1">
          <mxGeometry width="50" height="50" relative="1" as="geometry">
            <mxPoint x="240" y="500" as="sourcePoint" />
            <mxPoint x="290" y="450" as="targetPoint" />
          </mxGeometry>
        </mxCell>
        <mxCell id="HLBeFbxGgxuQ4I423yTP-60" value="&lt;div style=&quot;text-align: center;&quot;&gt;&lt;span style=&quot;font-weight: 400;&quot;&gt;Enter the plan details&lt;/span&gt;&lt;/div&gt;" style="text;whiteSpace=wrap;html=1;fontStyle=1;fontSize=12;" parent="1" vertex="1">
          <mxGeometry x="130" y="571" width="170" height="20" as="geometry" />
        </mxCell>
        <mxCell id="HLBeFbxGgxuQ4I423yTP-61" value="par make-plan" style="shape=umlFrame;whiteSpace=wrap;html=1;pointerEvents=0;" parent="1" vertex="1">
          <mxGeometry x="490" y="491" width="520" height="79" as="geometry" />
        </mxCell>
        <mxCell id="HLBeFbxGgxuQ4I423yTP-64" value="" style="endArrow=classic;html=1;rounded=0;" parent="1" edge="1">
          <mxGeometry width="50" height="50" relative="1" as="geometry">
            <mxPoint x="108" y="661" as="sourcePoint" />
            <mxPoint x="278" y="661" as="targetPoint" />
          </mxGeometry>
        </mxCell>
        <mxCell id="HLBeFbxGgxuQ4I423yTP-65" value="&lt;div style=&quot;text-align: center;&quot;&gt;&lt;span style=&quot;font-weight: 400;&quot;&gt;Click the analysis button&lt;/span&gt;&lt;/div&gt;" style="text;whiteSpace=wrap;html=1;fontStyle=1;fontSize=12;" parent="1" vertex="1">
          <mxGeometry x="123" y="641" width="140" height="20" as="geometry" />
        </mxCell>
        <mxCell id="HLBeFbxGgxuQ4I423yTP-67" value="" style="endArrow=classic;html=1;rounded=0;" parent="1" edge="1">
          <mxGeometry width="50" height="50" relative="1" as="geometry">
            <mxPoint x="290" y="670" as="sourcePoint" />
            <mxPoint x="460" y="670" as="targetPoint" />
          </mxGeometry>
        </mxCell>
        <mxCell id="HLBeFbxGgxuQ4I423yTP-68" value="&lt;div style=&quot;text-align: center;&quot;&gt;&lt;span style=&quot;font-weight: 400;&quot;&gt;Send user infomation&lt;/span&gt;&lt;/div&gt;" style="text;whiteSpace=wrap;html=1;fontStyle=1;fontSize=12;" parent="1" vertex="1">
          <mxGeometry x="310" y="650" width="130" height="20" as="geometry" />
        </mxCell>
        <mxCell id="HLBeFbxGgxuQ4I423yTP-71" value="" style="endArrow=classic;html=1;rounded=0;" parent="1" edge="1">
          <mxGeometry width="50" height="50" relative="1" as="geometry">
            <mxPoint x="471" y="681" as="sourcePoint" />
            <mxPoint x="821" y="681" as="targetPoint" />
          </mxGeometry>
        </mxCell>
        <mxCell id="HLBeFbxGgxuQ4I423yTP-72" value="&lt;div style=&quot;text-align: center;&quot;&gt;&lt;span style=&quot;font-weight: 400;&quot;&gt;Send an analysis request&lt;/span&gt;&lt;/div&gt;" style="text;whiteSpace=wrap;html=1;fontStyle=1;fontSize=12;" parent="1" vertex="1">
          <mxGeometry x="551" y="661" width="220" height="20" as="geometry" />
        </mxCell>
        <mxCell id="HLBeFbxGgxuQ4I423yTP-73" value="" style="endArrow=classic;html=1;rounded=0;edgeStyle=orthogonalEdgeStyle;" parent="1" edge="1">
          <mxGeometry width="50" height="50" relative="1" as="geometry">
            <mxPoint x="830.7" y="681.05" as="sourcePoint" />
            <mxPoint x="830.99" y="699.3199999999999" as="targetPoint" />
            <Array as="points">
              <mxPoint x="852.99" y="681.3199999999999" />
              <mxPoint x="852.99" y="699.3199999999999" />
            </Array>
          </mxGeometry>
        </mxCell>
        <mxCell id="HLBeFbxGgxuQ4I423yTP-74" value="&lt;div style=&quot;text-align: center;&quot;&gt;&lt;span style=&quot;font-weight: 400;&quot;&gt;Get data and calulate&lt;/span&gt;&lt;/div&gt;" style="text;whiteSpace=wrap;html=1;fontStyle=1;fontSize=12;" parent="1" vertex="1">
          <mxGeometry x="854" y="676" width="144" height="20" as="geometry" />
        </mxCell>
        <mxCell id="HLBeFbxGgxuQ4I423yTP-75" value="" style="endArrow=none;dashed=1;html=1;rounded=0;" parent="1" source="HLBeFbxGgxuQ4I423yTP-76" edge="1">
          <mxGeometry width="50" height="50" relative="1" as="geometry">
            <mxPoint x="1151" y="930" as="sourcePoint" />
            <mxPoint x="1151.4" y="201.25" as="targetPoint" />
          </mxGeometry>
        </mxCell>
        <mxCell id="HLBeFbxGgxuQ4I423yTP-77" value="" style="endArrow=none;dashed=1;html=1;rounded=0;" parent="1" target="HLBeFbxGgxuQ4I423yTP-76" edge="1">
          <mxGeometry width="50" height="50" relative="1" as="geometry">
            <mxPoint x="1151" y="1050" as="sourcePoint" />
            <mxPoint x="1151.4" y="201.25" as="targetPoint" />
          </mxGeometry>
        </mxCell>
        <mxCell id="HLBeFbxGgxuQ4I423yTP-76" value="" style="rounded=0;whiteSpace=wrap;html=1;direction=south;" parent="1" vertex="1">
          <mxGeometry x="1145" y="660" width="10" height="130" as="geometry" />
        </mxCell>
        <mxCell id="HLBeFbxGgxuQ4I423yTP-79" value="" style="endArrow=classic;html=1;rounded=0;entryX=0.612;entryY=1.205;entryDx=0;entryDy=0;entryPerimeter=0;" parent="1" target="HLBeFbxGgxuQ4I423yTP-76" edge="1">
          <mxGeometry width="50" height="50" relative="1" as="geometry">
            <mxPoint x="831" y="740" as="sourcePoint" />
            <mxPoint x="1140" y="740" as="targetPoint" />
          </mxGeometry>
        </mxCell>
        <mxCell id="HLBeFbxGgxuQ4I423yTP-80" value="&lt;div style=&quot;text-align: center;&quot;&gt;&lt;span style=&quot;font-weight: 400;&quot;&gt;Generate user data analysis report&lt;/span&gt;&lt;/div&gt;" style="text;whiteSpace=wrap;html=1;fontStyle=1;fontSize=12;" parent="1" vertex="1">
          <mxGeometry x="900" y="715" width="190" height="20" as="geometry" />
        </mxCell>
        <mxCell id="HLBeFbxGgxuQ4I423yTP-81" value="" style="endArrow=open;endSize=12;dashed=1;html=1;rounded=0;entryX=1.158;entryY=0.816;entryDx=0;entryDy=0;entryPerimeter=0;" parent="1" edge="1">
          <mxGeometry width="160" relative="1" as="geometry">
            <mxPoint x="820" y="750.4300000000001" as="sourcePoint" />
            <mxPoint x="470" y="750" as="targetPoint" />
          </mxGeometry>
        </mxCell>
        <mxCell id="HLBeFbxGgxuQ4I423yTP-82" value="&lt;div style=&quot;text-align: center;&quot;&gt;&lt;span style=&quot;font-weight: 400;&quot;&gt;Return analysis report&lt;/span&gt;&lt;/div&gt;" style="text;whiteSpace=wrap;html=1;fontStyle=1;fontSize=12;" parent="1" vertex="1">
          <mxGeometry x="560" y="726" width="220" height="20" as="geometry" />
        </mxCell>
        <mxCell id="HLBeFbxGgxuQ4I423yTP-83" value="" style="endArrow=open;endSize=12;dashed=1;html=1;rounded=0;entryX=1.158;entryY=0.816;entryDx=0;entryDy=0;entryPerimeter=0;exitX=0.963;exitY=0.996;exitDx=0;exitDy=0;exitPerimeter=0;" parent="1" source="HLBeFbxGgxuQ4I423yTP-29" edge="1">
          <mxGeometry width="160" relative="1" as="geometry">
            <mxPoint x="640" y="760.4300000000001" as="sourcePoint" />
            <mxPoint x="290" y="760" as="targetPoint" />
          </mxGeometry>
        </mxCell>
        <mxCell id="HLBeFbxGgxuQ4I423yTP-84" value="&lt;div style=&quot;text-align: center;&quot;&gt;&lt;span style=&quot;font-weight: 400;&quot;&gt;Display analysis to user&lt;/span&gt;&lt;/div&gt;" style="text;whiteSpace=wrap;html=1;fontStyle=1;fontSize=12;" parent="1" vertex="1">
          <mxGeometry x="315" y="735" width="130" height="20" as="geometry" />
        </mxCell>
        <mxCell id="HLBeFbxGgxuQ4I423yTP-87" value="" style="endArrow=classic;html=1;rounded=0;" parent="1" edge="1">
          <mxGeometry width="50" height="50" relative="1" as="geometry">
            <mxPoint x="112" y="820" as="sourcePoint" />
            <mxPoint x="282" y="820" as="targetPoint" />
          </mxGeometry>
        </mxCell>
        <mxCell id="HLBeFbxGgxuQ4I423yTP-88" value="&lt;div style=&quot;text-align: center;&quot;&gt;&lt;span style=&quot;font-weight: 400;&quot;&gt;Click the upload button&lt;/span&gt;&lt;/div&gt;" style="text;whiteSpace=wrap;html=1;fontStyle=1;fontSize=12;" parent="1" vertex="1">
          <mxGeometry x="127" y="800" width="140" height="20" as="geometry" />
        </mxCell>
        <mxCell id="HLBeFbxGgxuQ4I423yTP-89" value="" style="endArrow=none;dashed=1;html=1;rounded=0;" parent="1" source="HLBeFbxGgxuQ4I423yTP-90" edge="1">
          <mxGeometry width="50" height="50" relative="1" as="geometry">
            <mxPoint x="643.75" y="1047.5" as="sourcePoint" />
            <mxPoint x="644.15" y="190" as="targetPoint" />
          </mxGeometry>
        </mxCell>
        <mxCell id="HLBeFbxGgxuQ4I423yTP-92" value="" style="endArrow=none;dashed=1;html=1;rounded=0;" parent="1" target="HLBeFbxGgxuQ4I423yTP-90" edge="1">
          <mxGeometry width="50" height="50" relative="1" as="geometry">
            <mxPoint x="643.75" y="1047.5" as="sourcePoint" />
            <mxPoint x="644.15" y="190" as="targetPoint" />
          </mxGeometry>
        </mxCell>
        <mxCell id="HLBeFbxGgxuQ4I423yTP-90" value="" style="rounded=0;whiteSpace=wrap;html=1;direction=south;" parent="1" vertex="1">
          <mxGeometry x="640" y="770" width="10" height="210" as="geometry" />
        </mxCell>
        <mxCell id="HLBeFbxGgxuQ4I423yTP-93" value="" style="endArrow=classic;html=1;rounded=0;" parent="1" edge="1">
          <mxGeometry width="50" height="50" relative="1" as="geometry">
            <mxPoint x="290" y="830" as="sourcePoint" />
            <mxPoint x="640" y="830" as="targetPoint" />
          </mxGeometry>
        </mxCell>
        <mxCell id="HLBeFbxGgxuQ4I423yTP-94" value="&lt;div style=&quot;text-align: center;&quot;&gt;&lt;span style=&quot;font-weight: 400;&quot;&gt;Call to the upload video controller&lt;/span&gt;&lt;/div&gt;" style="text;whiteSpace=wrap;html=1;fontStyle=1;fontSize=12;" parent="1" vertex="1">
          <mxGeometry x="351" y="808" width="220" height="20" as="geometry" />
        </mxCell>
        <mxCell id="HLBeFbxGgxuQ4I423yTP-98" value="" style="endArrow=classic;html=1;rounded=0;" parent="1" edge="1">
          <mxGeometry width="50" height="50" relative="1" as="geometry">
            <mxPoint x="650" y="840" as="sourcePoint" />
            <mxPoint x="820" y="840" as="targetPoint" />
          </mxGeometry>
        </mxCell>
        <mxCell id="HLBeFbxGgxuQ4I423yTP-97" value="&lt;div style=&quot;text-align: center;&quot;&gt;&lt;span style=&quot;font-weight: 400;&quot;&gt;Call to AI judge&lt;/span&gt;&lt;/div&gt;" style="text;whiteSpace=wrap;html=1;fontStyle=1;fontSize=12;" parent="1" vertex="1">
          <mxGeometry x="690" y="817" width="220" height="20" as="geometry" />
        </mxCell>
        <mxCell id="HLBeFbxGgxuQ4I423yTP-100" value="" style="endArrow=classic;html=1;rounded=0;edgeStyle=orthogonalEdgeStyle;" parent="1" edge="1">
          <mxGeometry width="50" height="50" relative="1" as="geometry">
            <mxPoint x="831" y="833.01" as="sourcePoint" />
            <mxPoint x="831.29" y="851.28" as="targetPoint" />
            <Array as="points">
              <mxPoint x="853.29" y="833.28" />
              <mxPoint x="853.29" y="851.28" />
            </Array>
          </mxGeometry>
        </mxCell>
        <mxCell id="HLBeFbxGgxuQ4I423yTP-101" value="&lt;div style=&quot;text-align: center;&quot;&gt;&lt;span style=&quot;font-weight: 400;&quot;&gt;AI action compare function&lt;/span&gt;&lt;/div&gt;" style="text;whiteSpace=wrap;html=1;fontStyle=1;fontSize=12;" parent="1" vertex="1">
          <mxGeometry x="856" y="828" width="220" height="20" as="geometry" />
        </mxCell>
        <mxCell id="HLBeFbxGgxuQ4I423yTP-102" value="" style="endArrow=open;endSize=12;dashed=1;html=1;rounded=0;entryX=0.485;entryY=-0.233;entryDx=0;entryDy=0;entryPerimeter=0;" parent="1" edge="1">
          <mxGeometry width="160" relative="1" as="geometry">
            <mxPoint x="821" y="876.4300000000001" as="sourcePoint" />
            <mxPoint x="652.3300000000002" y="875.8500000000001" as="targetPoint" />
          </mxGeometry>
        </mxCell>
        <mxCell id="HLBeFbxGgxuQ4I423yTP-103" value="&lt;div style=&quot;text-align: center;&quot;&gt;&lt;span style=&quot;font-weight: 400;&quot;&gt;Send success info&lt;/span&gt;&lt;/div&gt;" style="text;whiteSpace=wrap;html=1;fontStyle=1;fontSize=12;" parent="1" vertex="1">
          <mxGeometry x="688" y="854" width="220" height="20" as="geometry" />
        </mxCell>
        <mxCell id="HLBeFbxGgxuQ4I423yTP-104" value="" style="endArrow=classic;html=1;rounded=0;edgeStyle=orthogonalEdgeStyle;" parent="1" edge="1">
          <mxGeometry width="50" height="50" relative="1" as="geometry">
            <mxPoint x="649.85" y="900" as="sourcePoint" />
            <mxPoint x="650.14" y="918.27" as="targetPoint" />
            <Array as="points">
              <mxPoint x="672.14" y="900.27" />
              <mxPoint x="672.14" y="918.27" />
            </Array>
          </mxGeometry>
        </mxCell>
        <mxCell id="HLBeFbxGgxuQ4I423yTP-105" value="&lt;div style=&quot;text-align: center;&quot;&gt;&lt;span style=&quot;font-weight: 400;&quot;&gt;Record and updata progress&lt;/span&gt;&lt;/div&gt;" style="text;whiteSpace=wrap;html=1;fontStyle=1;fontSize=12;" parent="1" vertex="1">
          <mxGeometry x="673" y="894" width="220" height="20" as="geometry" />
        </mxCell>
        <mxCell id="HLBeFbxGgxuQ4I423yTP-106" value="" style="endArrow=open;endSize=12;dashed=1;html=1;rounded=0;entryX=1.158;entryY=0.816;entryDx=0;entryDy=0;entryPerimeter=0;" parent="1" edge="1">
          <mxGeometry width="160" relative="1" as="geometry">
            <mxPoint x="640" y="883" as="sourcePoint" />
            <mxPoint x="290" y="883" as="targetPoint" />
          </mxGeometry>
        </mxCell>
        <mxCell id="HLBeFbxGgxuQ4I423yTP-107" value="&lt;div style=&quot;text-align: center;&quot;&gt;&lt;span style=&quot;font-weight: 400;&quot;&gt;Release updates for virtual rewards&lt;/span&gt;&lt;/div&gt;" style="text;whiteSpace=wrap;html=1;fontStyle=1;fontSize=12;" parent="1" vertex="1">
          <mxGeometry x="378" y="859" width="210" height="20" as="geometry" />
        </mxCell>
        <mxCell id="HLBeFbxGgxuQ4I423yTP-110" value="" style="endArrow=open;endSize=12;dashed=1;html=1;rounded=0;entryX=0.485;entryY=-0.233;entryDx=0;entryDy=0;entryPerimeter=0;" parent="1" edge="1">
          <mxGeometry width="160" relative="1" as="geometry">
            <mxPoint x="818.67" y="960.58" as="sourcePoint" />
            <mxPoint x="650.0000000000001" y="960.0000000000001" as="targetPoint" />
          </mxGeometry>
        </mxCell>
        <mxCell id="HLBeFbxGgxuQ4I423yTP-111" value="&lt;div style=&quot;text-align: center;&quot;&gt;&lt;span style=&quot;font-weight: 400;&quot;&gt;Send failure info&lt;/span&gt;&lt;/div&gt;" style="text;whiteSpace=wrap;html=1;fontStyle=1;fontSize=12;" parent="1" vertex="1">
          <mxGeometry x="689" y="940" width="220" height="20" as="geometry" />
        </mxCell>
        <mxCell id="HLBeFbxGgxuQ4I423yTP-112" value="" style="endArrow=open;endSize=12;dashed=1;html=1;rounded=0;entryX=1.158;entryY=0.816;entryDx=0;entryDy=0;entryPerimeter=0;" parent="1" edge="1">
          <mxGeometry width="160" relative="1" as="geometry">
            <mxPoint x="640" y="968" as="sourcePoint" />
            <mxPoint x="290" y="968" as="targetPoint" />
          </mxGeometry>
        </mxCell>
        <mxCell id="HLBeFbxGgxuQ4I423yTP-113" value="&lt;div style=&quot;text-align: center;&quot;&gt;&lt;span style=&quot;font-weight: 400;&quot;&gt;Display reminder of re-upload&lt;/span&gt;&lt;/div&gt;" style="text;whiteSpace=wrap;html=1;fontStyle=1;fontSize=12;" parent="1" vertex="1">
          <mxGeometry x="378" y="947" width="210" height="20" as="geometry" />
        </mxCell>
        <mxCell id="HLBeFbxGgxuQ4I423yTP-114" value="" style="endArrow=classic;html=1;rounded=0;" parent="1" edge="1">
          <mxGeometry width="50" height="50" relative="1" as="geometry">
            <mxPoint x="108" y="978" as="sourcePoint" />
            <mxPoint x="278" y="978" as="targetPoint" />
          </mxGeometry>
        </mxCell>
        <mxCell id="HLBeFbxGgxuQ4I423yTP-115" value="&lt;div style=&quot;text-align: center;&quot;&gt;&lt;span style=&quot;font-weight: 400;&quot;&gt;Re-upload exercise video&lt;/span&gt;&lt;/div&gt;" style="text;whiteSpace=wrap;html=1;fontStyle=1;fontSize=12;" parent="1" vertex="1">
          <mxGeometry x="123" y="958" width="140" height="20" as="geometry" />
        </mxCell>
        <mxCell id="HLBeFbxGgxuQ4I423yTP-116" value="alt&amp;nbsp;&lt;div&gt;&amp;nbsp;checkin&lt;/div&gt;" style="shape=umlFrame;whiteSpace=wrap;html=1;pointerEvents=0;width=65;height=40;" parent="1" vertex="1">
          <mxGeometry x="70" y="770" width="950" height="240" as="geometry" />
        </mxCell>
        <mxCell id="HLBeFbxGgxuQ4I423yTP-117" value="" style="endArrow=none;dashed=1;html=1;rounded=0;exitX=0.001;exitY=0.694;exitDx=0;exitDy=0;exitPerimeter=0;" parent="1" source="HLBeFbxGgxuQ4I423yTP-116" edge="1">
          <mxGeometry width="50" height="50" relative="1" as="geometry">
            <mxPoint x="410" y="760" as="sourcePoint" />
            <mxPoint x="1020" y="939" as="targetPoint" />
          </mxGeometry>
        </mxCell>
        <mxCell id="HLBeFbxGgxuQ4I423yTP-118" value="&lt;div style=&quot;text-align: center;&quot;&gt;&lt;span style=&quot;font-weight: 400;&quot;&gt;[fail to checkin]&lt;/span&gt;&lt;/div&gt;" style="text;whiteSpace=wrap;html=1;fontStyle=1;fontSize=12;" parent="1" vertex="1">
          <mxGeometry x="170" y="938" width="140" height="20" as="geometry" />
        </mxCell>
        <mxCell id="HLBeFbxGgxuQ4I423yTP-119" value="par record" style="shape=umlFrame;whiteSpace=wrap;html=1;pointerEvents=0;" parent="1" vertex="1">
          <mxGeometry x="621" y="790" width="200" height="199" as="geometry" />
        </mxCell>
        <mxCell id="HLBeFbxGgxuQ4I423yTP-121" value="" style="endArrow=none;dashed=1;html=1;rounded=0;" parent="1" edge="1">
          <mxGeometry width="50" height="50" relative="1" as="geometry">
            <mxPoint x="827" y="1047.5" as="sourcePoint" />
            <mxPoint x="827.25" y="980" as="targetPoint" />
          </mxGeometry>
        </mxCell>
        <mxCell id="HLBeFbxGgxuQ4I423yTP-122" value="TutorialCheckin&lt;div&gt;Interaction&lt;/div&gt;" style="shape=umlFrame;whiteSpace=wrap;html=1;pointerEvents=0;width=89;height=39;" parent="1" vertex="1">
          <mxGeometry y="80" width="1210" height="980" as="geometry" />
        </mxCell>
        <mxCell id="eg0saWKNPs3L_MAmnSyL-1" value="&lt;div style=&quot;text-align: center;&quot;&gt;&lt;span style=&quot;font-weight: 400;&quot;&gt;[by AI]&lt;/span&gt;&lt;/div&gt;" style="text;whiteSpace=wrap;html=1;fontStyle=1;fontSize=12;" vertex="1" parent="1">
          <mxGeometry x="181" y="491" width="170" height="20" as="geometry" />
        </mxCell>
        <mxCell id="eg0saWKNPs3L_MAmnSyL-2" value="&lt;div style=&quot;text-align: center;&quot;&gt;&lt;span style=&quot;font-weight: 400;&quot;&gt;[fail to checkin]&lt;/span&gt;&lt;/div&gt;" style="text;whiteSpace=wrap;html=1;fontStyle=1;fontSize=12;" vertex="1" parent="1">
          <mxGeometry x="175" y="780" width="140" height="20" as="geometry" />
        </mxCell>
      </root>
    </mxGraphModel>
  </diagram>
</mxfile>
